# xmcd CD database file
# Copyright (C) 1993-1998 Ti Kan
# 
# Track frame offsets:
#     150
#     13217
#     27255
#     37667
#     52165
#     68370
#     83137
#     97520
#     110532
#     125220
#     139067
# 
# Disc length: 2089 seconds
# 
# Revision: 1
# Processed by: cddbd v1.4b41PL1 Copyright (c) Steve Scherf et al.
# Submitted via: DiscPlay 4.0.4
# 
DISCID=8708270b
DTITLE=Brett Barrow - I Just Come Here For The Music
DYEAR=1900
DGENRE=
TTITLE0=I Just Might Make It
TTITLE1=I Lie
TTITLE2=Let's Face The Music (And Dance)
TTITLE3=Check Please
TTITLE4=So Much Like My Dad
TTITLE5=Mission From Hank
TTITLE6=She's Over You
TTITLE7=House Of Negotiable Affections
TTITLE8=Something Cool
TTITLE9=Take This Love Of Mine
TTITLE10=I Just Come Here For The Music
EXTD=
EXTT0=
EXTT1=
EXTT2=
EXTT3=
EXTT4=
EXTT5=
EXTT6=
EXTT7=
EXTT8=
EXTT9=
EXTT10=
PLAYORDER=
